<svg width="24" height="24" viewBox="0 0 24 24" fill="none" xmlns="http://www.w3.org/2000/svg">
<path d="M23.7888 19.9718L13.2592 2.50953C12.9931 2.0682 12.5153 1.79834 12 1.79834C11.4846 1.79834 11.0068 2.06815 10.7407 2.50953L0.211216 19.9718C-0.0626273 20.426 -0.0707367 20.9925 0.190076 21.4542C0.450888 21.9161 0.940123 22.2016 1.47047 22.2016H22.5295C23.0598 22.2016 23.5491 21.916 23.8099 21.4542C24.0707 20.9924 24.0626 20.426 23.7888 19.9718ZM12.0078 7.83875C12.6126 7.83875 13.1242 8.1799 13.1242 8.78459C13.1242 10.6297 12.9072 13.2813 12.9072 15.1264C12.9072 15.6071 12.38 15.8086 12.0078 15.8086C11.5117 15.8086 11.093 15.6071 11.093 15.1264C11.093 13.2813 10.876 10.6297 10.876 8.78459C10.876 8.1799 11.3721 7.83875 12.0078 7.83875ZM12.0233 19.2665C11.3411 19.2665 10.8294 18.7083 10.8294 18.0725C10.8294 17.4213 11.3411 16.8786 12.0233 16.8786C12.6591 16.8786 13.2018 17.4213 13.2018 18.0725C13.2018 18.7083 12.6591 19.2665 12.0233 19.2665Z" fill="white"/>
</svg>
