<svg width="24" height="24" viewBox="0 0 24 24" fill="none" xmlns="http://www.w3.org/2000/svg">
<path d="M24 14.1013V24H18.856V14.6973C18.856 12.6115 18.112 11.1881 16.2501 11.1881C14.8287 11.1881 13.9828 12.1474 13.6107 13.0754C13.475 13.4071 13.4401 13.8688 13.4401 14.3332V24H8.29438C8.29438 24 8.36368 8.93789 8.29438 7.48095H13.4396V9.68071C13.4291 9.69717 13.4156 9.71491 13.4058 9.73086H13.4396V9.68071C14.1232 8.62479 15.344 7.11637 18.0766 7.11637C21.462 7.11631 24 9.33443 24 14.1013ZM2.91175 0C1.15141 0 0 1.158 0 2.6808C0 4.17042 1.1181 5.36356 2.84345 5.36356H2.87782C4.67225 5.36356 5.78823 4.17065 5.78823 2.6808C5.75442 1.158 4.67225 0 2.91175 0ZM0.30561 24H5.44936V7.48095H0.30561V24Z" fill="#3276B2"/>
</svg>
