<svg width="24" height="24" viewBox="0 0 24 24" fill="none" xmlns="http://www.w3.org/2000/svg">
<path d="M21.9205 0.754563C22.027 0.551476 22.027 0.37253 21.9205 0.217775C21.8332 0.0728796 21.6836 0.00020329 21.4707 0H17.9738C17.5964 0 17.287 0.217571 17.0451 0.652918C12.0824 9.45585 9.5142 14.0119 9.34003 14.3216L14.259 23.3469C14.491 23.7822 14.8104 24 15.2166 24H18.6848C18.8976 24 19.052 23.9273 19.149 23.7823C19.2458 23.6178 19.2409 23.439 19.1345 23.2452L14.259 14.3216V14.3072L21.9205 0.754563Z" fill="#B7D242"/>
<path d="M8.2828 5.6484C8.03128 5.21605 7.71201 5 7.3252 5H3.85727C3.63482 5 3.48012 5.0721 3.39296 5.216C3.28669 5.36005 3.29147 5.53785 3.4076 5.7491L5.74371 9.76814C5.75326 9.77788 5.75326 9.78267 5.74371 9.78267L2.07254 16.2361C1.97582 16.4192 1.97582 16.5918 2.07254 16.7551C2.16951 16.9185 2.31923 17 2.52247 17H5.99035C6.3579 17 6.67229 16.7792 6.93336 16.3373C9.32273 12.1313 10.5659 9.94161 10.6626 9.7687L8.2828 5.6484Z" fill="#2A6366"/>
</svg>
